<svg width="18" height="18" viewBox="0 0 18 18" fill="none" xmlns="http://www.w3.org/2000/svg">
<g clip-path="url(#clip0_1510_4853)">
<path d="M6.31934 4.00732C7.35733 6.20292 9.11583 7.9611 11.3105 8.99951C9.11521 10.0377 7.35655 11.7964 6.31836 13.9917C5.27953 11.7966 3.52177 10.0377 1.32715 8.99951C3.52294 7.96127 5.28109 6.20311 6.31934 4.00732Z" stroke="white"/>
<path d="M14.1836 1.46973C14.781 2.55953 15.6743 3.45206 16.7637 4.0498C15.6736 4.6475 14.7803 5.54174 14.1826 6.63184C13.5848 5.54208 12.6921 4.64841 11.6025 4.05078C12.6927 3.45308 13.5859 2.55986 14.1836 1.46973Z" stroke="white"/>
<path d="M14.1836 11.5625C14.781 12.6523 15.6743 13.5448 16.7637 14.1426C15.6736 14.7403 14.7803 15.6345 14.1826 16.7246C13.5848 15.6349 12.6921 14.7412 11.6025 14.1436C12.6927 13.5459 13.5859 12.6526 14.1836 11.5625Z" stroke="white"/>
</g>
<defs>
<clipPath id="clip0_1510_4853">
<rect width="18" height="18" fill="white"/>
</clipPath>
</defs>
</svg>
