<svg width="18" height="18" viewBox="0 0 18 18" fill="none" xmlns="http://www.w3.org/2000/svg">
<g clip-path="url(#clip0_1507_4400)">
<path d="M6.31934 4.00732C7.35733 6.20292 9.11583 7.9611 11.3105 8.99951C9.11521 10.0377 7.35655 11.7964 6.31836 13.9917C5.27953 11.7966 3.52177 10.0377 1.32715 8.99951C3.52294 7.96127 5.28109 6.20311 6.31934 4.00732Z" stroke="black"/>
<path d="M14.1836 1.46948C14.781 2.55928 15.6743 3.45182 16.7637 4.04956C15.6736 4.64726 14.7803 5.54149 14.1826 6.63159C13.5848 5.54184 12.6921 4.64817 11.6025 4.05054C12.6927 3.45284 13.5859 2.55962 14.1836 1.46948Z" stroke="black"/>
<path d="M14.1836 11.5623C14.781 12.6521 15.6743 13.5446 16.7637 14.1423C15.6736 14.74 14.7803 15.6343 14.1826 16.7244C13.5848 15.6346 12.6921 14.7409 11.6025 14.1433C12.6927 13.5456 13.5859 12.6524 14.1836 11.5623Z" stroke="black"/>
</g>
<defs>
<clipPath id="clip0_1507_4400">
<rect width="18" height="18" fill="white"/>
</clipPath>
</defs>
</svg>
