<svg width="24" height="24" viewBox="0 0 24 24" fill="none" xmlns="http://www.w3.org/2000/svg">
<g clip-path="url(#clip0_1507_4470)">
<path d="M16.559 12.106C12.8082 13.4571 9.88223 16.3831 8.53114 20.1339L8.42533 20.4269L8.31952 20.1339C6.96708 16.3831 4.04107 13.4571 0.291651 12.106L0 12.0002L0.293008 11.8944C4.04378 10.5433 6.96979 7.61727 8.32088 3.86649L8.42669 3.57349L8.5325 3.86649C9.88359 7.61727 12.8096 10.5433 16.559 11.8944L16.852 12.0002L16.559 12.106Z" fill="black"/>
<path d="M23.8228 5.46531C21.5576 6.28124 19.7906 8.04827 18.9747 10.3134L18.9108 10.4903L18.8469 10.3134C18.0301 8.04827 16.2631 6.28124 13.9988 5.46531L13.8227 5.40141L13.9996 5.33751C16.2647 4.52158 18.0318 2.75456 18.8477 0.489448L18.9116 0.3125L18.9755 0.489448C19.7914 2.75456 21.5585 4.52158 23.8228 5.33751L23.9997 5.40141L23.8228 5.46531Z" fill="black"/>
<path d="M23.8228 18.9221C21.5576 19.738 19.7906 21.5051 18.9747 23.7702L18.9108 23.9471L18.8469 23.7702C18.0301 21.5051 16.2631 19.738 13.9988 18.9221L13.8227 18.8582L13.9996 18.7943C16.2647 17.9784 18.0318 16.2113 18.8477 13.9462L18.9116 13.7693L18.9755 13.9462C19.7914 16.2113 21.5585 17.9784 23.8228 18.7943L23.9997 18.8582L23.8228 18.9221Z" fill="black"/>
</g>
<defs>
<clipPath id="clip0_1507_4470">
<rect width="24" height="24" fill="white"/>
</clipPath>
</defs>
</svg>
