<svg width="24" height="24" viewBox="0 0 24 24" fill="none" xmlns="http://www.w3.org/2000/svg">
<g clip-path="url(#clip0_1510_4893)">
<path d="M16.559 12.1062C12.8082 13.4573 9.88223 16.3833 8.53114 20.1341L8.42533 20.4271L8.31952 20.1341C6.96708 16.3833 4.04107 13.4573 0.291651 12.1062L0 12.0004L0.293008 11.8946C4.04378 10.5435 6.96979 7.61751 8.32088 3.86674L8.42669 3.57373L8.5325 3.86674C9.88359 7.61751 12.8096 10.5435 16.559 11.8946L16.852 12.0004L16.559 12.1062Z" fill="white"/>
<path d="M23.8228 5.4658C21.5576 6.28173 19.7906 8.04876 18.9747 10.3139L18.9108 10.4908L18.8469 10.3139C18.0301 8.04876 16.2631 6.28173 13.9988 5.4658L13.8227 5.4019L13.9996 5.338C16.2647 4.52207 18.0318 2.75504 18.8477 0.489937L18.9116 0.312988L18.9755 0.489937C19.7914 2.75504 21.5585 4.52207 23.8228 5.338L23.9997 5.4019L23.8228 5.4658Z" fill="white"/>
<path d="M23.8228 18.9223C21.5576 19.7383 19.7906 21.5053 18.9747 23.7704L18.9108 23.9474L18.8469 23.7704C18.0301 21.5053 16.2631 19.7383 13.9988 18.9223L13.8227 18.8584L13.9996 18.7945C16.2647 17.9786 18.0318 16.2116 18.8477 13.9465L18.9116 13.7695L18.9755 13.9465C19.7914 16.2116 21.5585 17.9786 23.8228 18.7945L23.9997 18.8584L23.8228 18.9223Z" fill="white"/>
</g>
<defs>
<clipPath id="clip0_1510_4893">
<rect width="24" height="24" fill="white"/>
</clipPath>
</defs>
</svg>
