<svg width="20" height="20" viewBox="0 0 20 20" fill="none" xmlns="http://www.w3.org/2000/svg">
<path d="M8.92179 6.89191C8.54904 6.66916 8.07129 6.93841 8.07129 7.37491V12.6249C8.07129 13.0637 8.54979 13.3292 8.92179 13.1087L13.3235 10.4874C13.6895 10.2692 13.6888 9.73966 13.3243 9.52066L8.92179 6.89191ZM9.19629 11.6357V8.36566L11.9375 10.0029L9.19629 11.6357Z" fill="black"/>
<path d="M12.7536 1.20052C14.6162 0.295549 16.9223 0.954799 17.9027 2.67334C18.883 4.39189 18.1678 6.51797 16.3052 7.42294L14.7737 8.17359C16.0931 8.21854 17.3514 8.89427 18.0103 10.0495C18.9906 11.768 18.2771 13.8941 16.4129 14.7991L8.2457 18.7995C6.3831 19.7045 4.07694 19.0452 3.09662 17.3267C2.1163 15.6081 2.83145 13.482 4.69406 12.5771L6.2256 11.8264C4.90619 11.7815 3.64785 11.1058 2.98894 9.95057C2.00862 8.23202 2.72377 6.10594 4.58638 5.20097L12.7536 1.20052Z" stroke="black" stroke-width="1.1"/>
</svg>
