<svg width="20" height="20" viewBox="0 0 20 20" fill="none" xmlns="http://www.w3.org/2000/svg">
<path d="M8.45426 6.89191C8.08151 6.66916 7.60376 6.93841 7.60376 7.37491V12.6249C7.60376 13.0637 8.08226 13.3292 8.45426 13.1087L12.856 10.4874C13.222 10.2692 13.2213 9.73966 12.8568 9.52066L8.45426 6.89191ZM8.72876 11.6357V8.36566L11.47 10.0029L8.72876 11.6357Z" fill="black"/>
<path d="M15.928 3.45314C12.4382 2.93489 7.56325 2.93489 4.072 3.45314C2.6755 3.66014 1.57525 4.75664 1.33525 6.18014C0.88825 8.82239 0.88825 11.1781 1.33525 13.8196C1.57525 15.2439 2.6755 16.3396 4.072 16.5466C5.821 16.8061 7.915 16.9359 10.0082 16.9359C12.0977 16.9359 14.1865 16.8069 15.9288 16.5474C17.3238 16.3404 18.4233 15.2446 18.6647 13.8204C19.1117 11.1781 19.1117 8.82164 18.6647 6.17939C18.4247 4.75664 17.3245 3.66014 15.928 3.45314ZM17.5555 13.6329C17.3958 14.5749 16.6757 15.2994 15.763 15.4344C12.3745 15.9376 7.6345 15.9376 4.237 15.4336C3.3235 15.2979 2.60275 14.5741 2.44375 13.6321C2.01325 11.0866 2.01325 8.91389 2.44375 6.36689C2.6035 5.42489 3.3235 4.70189 4.23775 4.56539C5.93425 4.31414 7.9675 4.18814 9.99925 4.18814C12.0325 4.18814 14.0658 4.31414 15.7623 4.56539C16.6758 4.70114 17.3965 5.42489 17.5555 6.36689C17.986 8.91389 17.986 11.0866 17.5555 13.6329Z" fill="black"/>
</svg>
